<mxfile host="app.diagrams.net" modified="2023-04-27T10:12:24.533Z" agent="Mozilla/5.0 (Windows NT 10.0; Win64; x64) AppleWebKit/537.36 (KHTML, like Gecko) Chrome/111.0.0.0 Safari/537.36 OPR/97.0.0.0" etag="kJCNmQuPWnHwMUOyLxux" version="21.2.2" type="github">
  <diagram name="Page-1" id="PLng9I4rJ-9IpL7VwerK">
    <mxGraphModel dx="2012" dy="638" grid="1" gridSize="10" guides="1" tooltips="1" connect="1" arrows="1" fold="1" page="1" pageScale="1" pageWidth="850" pageHeight="1100" math="0" shadow="0">
      <root>
        <mxCell id="0" />
        <mxCell id="1" parent="0" />
        <mxCell id="hlcQiqIEzfI4XioGV9WH-1" value="Complex" style="rounded=0;whiteSpace=wrap;html=1;fillColor=#d5e8d4;strokeColor=#82b366;" parent="1" vertex="1">
          <mxGeometry x="115" y="632.5" width="70" height="30" as="geometry" />
        </mxCell>
        <mxCell id="hlcQiqIEzfI4XioGV9WH-3" value="Facility" style="rounded=0;whiteSpace=wrap;html=1;fillColor=#d5e8d4;strokeColor=#82b366;" parent="1" vertex="1">
          <mxGeometry x="370" y="438.75" width="70" height="27.5" as="geometry" />
        </mxCell>
        <mxCell id="hlcQiqIEzfI4XioGV9WH-5" value="contaions" style="rhombus;whiteSpace=wrap;html=1;fillColor=#e1d5e7;strokeColor=#9673a6;" parent="1" vertex="1">
          <mxGeometry x="255" y="560" width="70" height="45" as="geometry" />
        </mxCell>
        <mxCell id="hlcQiqIEzfI4XioGV9WH-12" value="" style="endArrow=none;html=1;rounded=0;exitX=1;exitY=0.5;exitDx=0;exitDy=0;entryX=0;entryY=0.5;entryDx=0;entryDy=0;" parent="1" source="hlcQiqIEzfI4XioGV9WH-1" target="hlcQiqIEzfI4XioGV9WH-5" edge="1">
          <mxGeometry width="50" height="50" relative="1" as="geometry">
            <mxPoint x="515" y="610" as="sourcePoint" />
            <mxPoint x="565" y="560" as="targetPoint" />
          </mxGeometry>
        </mxCell>
        <mxCell id="hlcQiqIEzfI4XioGV9WH-15" value="1" style="text;html=1;align=center;verticalAlign=middle;resizable=0;points=[];autosize=1;strokeColor=none;fillColor=none;" parent="1" vertex="1">
          <mxGeometry x="235" y="560" width="30" height="30" as="geometry" />
        </mxCell>
        <mxCell id="hlcQiqIEzfI4XioGV9WH-18" value="" style="endArrow=none;html=1;rounded=0;exitX=1;exitY=0.5;exitDx=0;exitDy=0;" parent="1" source="hlcQiqIEzfI4XioGV9WH-5" target="hlcQiqIEzfI4XioGV9WH-3" edge="1">
          <mxGeometry width="50" height="50" relative="1" as="geometry">
            <mxPoint x="255" y="310" as="sourcePoint" />
            <mxPoint x="305" y="260" as="targetPoint" />
          </mxGeometry>
        </mxCell>
        <mxCell id="hlcQiqIEzfI4XioGV9WH-19" value="m" style="text;html=1;align=center;verticalAlign=middle;resizable=0;points=[];autosize=1;strokeColor=none;fillColor=none;" parent="1" vertex="1">
          <mxGeometry x="310" y="547.5" width="30" height="30" as="geometry" />
        </mxCell>
        <mxCell id="hlcQiqIEzfI4XioGV9WH-25" value="m" style="text;html=1;align=center;verticalAlign=middle;resizable=0;points=[];autosize=1;strokeColor=none;fillColor=none;" parent="1" vertex="1">
          <mxGeometry x="-33.75" y="667.5" width="30" height="30" as="geometry" />
        </mxCell>
        <mxCell id="hlcQiqIEzfI4XioGV9WH-26" value="1" style="text;html=1;align=center;verticalAlign=middle;resizable=0;points=[];autosize=1;strokeColor=none;fillColor=none;" parent="1" vertex="1">
          <mxGeometry x="-33.75" y="592.5" width="30" height="30" as="geometry" />
        </mxCell>
        <mxCell id="hlcQiqIEzfI4XioGV9WH-27" value="" style="endArrow=none;html=1;rounded=0;" parent="1" source="hlcQiqIEzfI4XioGV9WH-1" target="hlcQiqIEzfI4XioGV9WH-54" edge="1">
          <mxGeometry width="50" height="50" relative="1" as="geometry">
            <mxPoint x="335" y="593" as="sourcePoint" />
            <mxPoint x="185" y="650" as="targetPoint" />
          </mxGeometry>
        </mxCell>
        <mxCell id="hlcQiqIEzfI4XioGV9WH-29" value="" style="endArrow=none;html=1;rounded=0;entryX=0.5;entryY=0;entryDx=0;entryDy=0;" parent="1" source="hlcQiqIEzfI4XioGV9WH-54" edge="1">
          <mxGeometry width="50" height="50" relative="1" as="geometry">
            <mxPoint x="-28.75" y="677.5" as="sourcePoint" />
            <mxPoint x="-28.749999999999773" y="727.5" as="targetPoint" />
          </mxGeometry>
        </mxCell>
        <mxCell id="hlcQiqIEzfI4XioGV9WH-33" value="" style="endArrow=none;html=1;rounded=0;entryX=0.533;entryY=0.019;entryDx=0;entryDy=0;entryPerimeter=0;exitX=0.53;exitY=0.984;exitDx=0;exitDy=0;exitPerimeter=0;" parent="1" edge="1">
          <mxGeometry width="50" height="50" relative="1" as="geometry">
            <mxPoint x="-26.050000000000182" y="676.54" as="sourcePoint" />
            <mxPoint x="-26.1099999999999" y="728.45" as="targetPoint" />
          </mxGeometry>
        </mxCell>
        <mxCell id="hlcQiqIEzfI4XioGV9WH-36" value="" style="rhombus;whiteSpace=wrap;html=1;fillColor=#e1d5e7;strokeColor=#9673a6;" parent="1" vertex="1">
          <mxGeometry x="360" y="525" width="100" height="75" as="geometry" />
        </mxCell>
        <mxCell id="hlcQiqIEzfI4XioGV9WH-37" value="" style="endArrow=none;html=1;rounded=0;exitX=0.468;exitY=0.979;exitDx=0;exitDy=0;exitPerimeter=0;entryX=0.532;entryY=-0.019;entryDx=0;entryDy=0;entryPerimeter=0;" parent="1" source="hlcQiqIEzfI4XioGV9WH-36" target="hlcQiqIEzfI4XioGV9WH-41" edge="1">
          <mxGeometry width="50" height="50" relative="1" as="geometry">
            <mxPoint x="404.69" y="600" as="sourcePoint" />
            <mxPoint x="405" y="680" as="targetPoint" />
          </mxGeometry>
        </mxCell>
        <mxCell id="hlcQiqIEzfI4XioGV9WH-39" value="" style="endArrow=none;html=1;rounded=0;entryX=0.589;entryY=-0.068;entryDx=0;entryDy=0;exitX=0.5;exitY=1;exitDx=0;exitDy=0;exitPerimeter=0;entryPerimeter=0;" parent="1" source="hlcQiqIEzfI4XioGV9WH-36" target="hlcQiqIEzfI4XioGV9WH-41" edge="1">
          <mxGeometry width="50" height="50" relative="1" as="geometry">
            <mxPoint x="415" y="600" as="sourcePoint" />
            <mxPoint x="414.69" y="675" as="targetPoint" />
            <Array as="points">
              <mxPoint x="410" y="680" />
            </Array>
          </mxGeometry>
        </mxCell>
        <mxCell id="hlcQiqIEzfI4XioGV9WH-41" value="" style="rounded=0;whiteSpace=wrap;html=1;fillColor=#B9C9B8;strokeColor=#82b366;" parent="1" vertex="1">
          <mxGeometry x="365" y="680" width="80" height="50" as="geometry" />
        </mxCell>
        <mxCell id="hlcQiqIEzfI4XioGV9WH-42" value="availability" style="rounded=0;whiteSpace=wrap;html=1;fillColor=#BCCCBB;strokeColor=#82b366;" parent="1" vertex="1">
          <mxGeometry x="367.5" y="685" width="75" height="40" as="geometry" />
        </mxCell>
        <mxCell id="hlcQiqIEzfI4XioGV9WH-50" value="" style="endArrow=none;html=1;rounded=0;entryX=0.484;entryY=0.07;entryDx=0;entryDy=0;entryPerimeter=0;exitX=0.56;exitY=0.935;exitDx=0;exitDy=0;exitPerimeter=0;" parent="1" source="hlcQiqIEzfI4XioGV9WH-3" target="hlcQiqIEzfI4XioGV9WH-36" edge="1">
          <mxGeometry width="50" height="50" relative="1" as="geometry">
            <mxPoint x="409" y="470" as="sourcePoint" />
            <mxPoint x="205" y="530" as="targetPoint" />
          </mxGeometry>
        </mxCell>
        <mxCell id="hlcQiqIEzfI4XioGV9WH-52" value="is scheduled" style="rhombus;whiteSpace=wrap;html=1;fillColor=#e1d5e7;strokeColor=#9673a6;" parent="1" vertex="1">
          <mxGeometry x="370" y="532.5" width="80" height="60" as="geometry" />
        </mxCell>
        <mxCell id="hlcQiqIEzfI4XioGV9WH-54" value="owns" style="rhombus;whiteSpace=wrap;html=1;fillColor=#e1d5e7;strokeColor=#9673a6;" parent="1" vertex="1">
          <mxGeometry x="-70" y="617.5" width="82.5" height="67.5" as="geometry" />
        </mxCell>
        <mxCell id="hlcQiqIEzfI4XioGV9WH-64" value="Sport Type" style="rounded=0;whiteSpace=wrap;html=1;fillColor=#d5e8d4;strokeColor=#82b366;" parent="1" vertex="1">
          <mxGeometry x="605" y="690" width="70" height="27.5" as="geometry" />
        </mxCell>
        <mxCell id="hlcQiqIEzfI4XioGV9WH-65" value="includes" style="rhombus;whiteSpace=wrap;html=1;fillColor=#e1d5e7;strokeColor=#9673a6;" parent="1" vertex="1">
          <mxGeometry x="510" y="617.5" width="70" height="45" as="geometry" />
        </mxCell>
        <mxCell id="hlcQiqIEzfI4XioGV9WH-66" value="" style="endArrow=none;html=1;rounded=0;exitX=1;exitY=0.75;exitDx=0;exitDy=0;entryX=0;entryY=0.5;entryDx=0;entryDy=0;" parent="1" target="hlcQiqIEzfI4XioGV9WH-65" edge="1">
          <mxGeometry width="50" height="50" relative="1" as="geometry">
            <mxPoint x="440" y="459" as="sourcePoint" />
            <mxPoint x="790" y="460" as="targetPoint" />
          </mxGeometry>
        </mxCell>
        <mxCell id="hlcQiqIEzfI4XioGV9WH-67" value="m" style="text;html=1;align=center;verticalAlign=middle;resizable=0;points=[];autosize=1;strokeColor=none;fillColor=none;" parent="1" vertex="1">
          <mxGeometry x="500" y="605" width="30" height="30" as="geometry" />
        </mxCell>
        <mxCell id="hlcQiqIEzfI4XioGV9WH-68" value="" style="endArrow=none;html=1;rounded=0;exitX=1;exitY=0.5;exitDx=0;exitDy=0;entryX=0;entryY=0.5;entryDx=0;entryDy=0;" parent="1" source="hlcQiqIEzfI4XioGV9WH-65" target="hlcQiqIEzfI4XioGV9WH-64" edge="1">
          <mxGeometry width="50" height="50" relative="1" as="geometry">
            <mxPoint x="500" y="497.5" as="sourcePoint" />
            <mxPoint x="550" y="447.5" as="targetPoint" />
          </mxGeometry>
        </mxCell>
        <mxCell id="hlcQiqIEzfI4XioGV9WH-69" value="m" style="text;html=1;align=center;verticalAlign=middle;resizable=0;points=[];autosize=1;strokeColor=none;fillColor=none;" parent="1" vertex="1">
          <mxGeometry x="580" y="620" width="30" height="30" as="geometry" />
        </mxCell>
        <mxCell id="hlcQiqIEzfI4XioGV9WH-70" value="Amenities" style="rounded=0;whiteSpace=wrap;html=1;fillColor=#d5e8d4;strokeColor=#82b366;" parent="1" vertex="1">
          <mxGeometry x="720" y="580" width="70" height="27.5" as="geometry" />
        </mxCell>
        <mxCell id="hlcQiqIEzfI4XioGV9WH-71" value="has" style="rhombus;whiteSpace=wrap;html=1;fillColor=#e1d5e7;strokeColor=#9673a6;" parent="1" vertex="1">
          <mxGeometry x="582.5" y="567.5" width="70" height="52.5" as="geometry" />
        </mxCell>
        <mxCell id="hlcQiqIEzfI4XioGV9WH-72" value="" style="endArrow=none;html=1;rounded=0;entryX=0;entryY=0.5;entryDx=0;entryDy=0;exitX=1;exitY=0.5;exitDx=0;exitDy=0;" parent="1" source="hlcQiqIEzfI4XioGV9WH-3" target="hlcQiqIEzfI4XioGV9WH-71" edge="1">
          <mxGeometry width="50" height="50" relative="1" as="geometry">
            <mxPoint x="420" y="535.0903614457832" as="sourcePoint" />
            <mxPoint x="872.5" y="392.5" as="targetPoint" />
          </mxGeometry>
        </mxCell>
        <mxCell id="hlcQiqIEzfI4XioGV9WH-73" value="m" style="text;html=1;align=center;verticalAlign=middle;resizable=0;points=[];autosize=1;strokeColor=none;fillColor=none;" parent="1" vertex="1">
          <mxGeometry x="575" y="560" width="30" height="30" as="geometry" />
        </mxCell>
        <mxCell id="hlcQiqIEzfI4XioGV9WH-74" value="" style="endArrow=none;html=1;rounded=0;exitX=1;exitY=0.5;exitDx=0;exitDy=0;entryX=0;entryY=0.5;entryDx=0;entryDy=0;" parent="1" source="hlcQiqIEzfI4XioGV9WH-71" target="hlcQiqIEzfI4XioGV9WH-70" edge="1">
          <mxGeometry width="50" height="50" relative="1" as="geometry">
            <mxPoint x="582.5" y="430" as="sourcePoint" />
            <mxPoint x="632.5" y="380" as="targetPoint" />
          </mxGeometry>
        </mxCell>
        <mxCell id="hlcQiqIEzfI4XioGV9WH-75" value="m" style="text;html=1;align=center;verticalAlign=middle;resizable=0;points=[];autosize=1;strokeColor=none;fillColor=none;" parent="1" vertex="1">
          <mxGeometry x="645" y="570" width="30" height="30" as="geometry" />
        </mxCell>
        <mxCell id="hlcQiqIEzfI4XioGV9WH-76" value="Event" style="rounded=0;whiteSpace=wrap;html=1;fillColor=#d5e8d4;strokeColor=#82b366;" parent="1" vertex="1">
          <mxGeometry x="610" y="467.5" width="70" height="27.5" as="geometry" />
        </mxCell>
        <mxCell id="hlcQiqIEzfI4XioGV9WH-77" value="hosts" style="rhombus;whiteSpace=wrap;html=1;fillColor=#e1d5e7;strokeColor=#9673a6;" parent="1" vertex="1">
          <mxGeometry x="500" y="470" width="70" height="45" as="geometry" />
        </mxCell>
        <mxCell id="hlcQiqIEzfI4XioGV9WH-78" value="" style="endArrow=none;html=1;rounded=0;exitX=1;exitY=0.5;exitDx=0;exitDy=0;entryX=0;entryY=0.5;entryDx=0;entryDy=0;" parent="1" source="hlcQiqIEzfI4XioGV9WH-3" target="hlcQiqIEzfI4XioGV9WH-77" edge="1">
          <mxGeometry width="50" height="50" relative="1" as="geometry">
            <mxPoint x="425" y="521.5" as="sourcePoint" />
            <mxPoint x="815" y="280" as="targetPoint" />
          </mxGeometry>
        </mxCell>
        <mxCell id="hlcQiqIEzfI4XioGV9WH-79" value="1" style="text;html=1;align=center;verticalAlign=middle;resizable=0;points=[];autosize=1;strokeColor=none;fillColor=none;" parent="1" vertex="1">
          <mxGeometry x="490" y="466.25" width="30" height="30" as="geometry" />
        </mxCell>
        <mxCell id="hlcQiqIEzfI4XioGV9WH-80" value="" style="endArrow=none;html=1;rounded=0;exitX=1;exitY=0.5;exitDx=0;exitDy=0;entryX=0;entryY=0.5;entryDx=0;entryDy=0;" parent="1" source="hlcQiqIEzfI4XioGV9WH-77" target="hlcQiqIEzfI4XioGV9WH-76" edge="1">
          <mxGeometry width="50" height="50" relative="1" as="geometry">
            <mxPoint x="525" y="317.5" as="sourcePoint" />
            <mxPoint x="575" y="267.5" as="targetPoint" />
          </mxGeometry>
        </mxCell>
        <mxCell id="hlcQiqIEzfI4XioGV9WH-81" value="m" style="text;html=1;align=center;verticalAlign=middle;resizable=0;points=[];autosize=1;strokeColor=none;fillColor=none;" parent="1" vertex="1">
          <mxGeometry x="552.5" y="490" width="30" height="30" as="geometry" />
        </mxCell>
        <mxCell id="hlcQiqIEzfI4XioGV9WH-83" value="Sponsor" style="rounded=0;whiteSpace=wrap;html=1;fillColor=#d5e8d4;strokeColor=#82b366;" parent="1" vertex="1">
          <mxGeometry x="730" y="333.75" width="70" height="27.5" as="geometry" />
        </mxCell>
        <mxCell id="hlcQiqIEzfI4XioGV9WH-84" value="finances" style="rhombus;whiteSpace=wrap;html=1;fillColor=#e1d5e7;strokeColor=#9673a6;" parent="1" vertex="1">
          <mxGeometry x="730" y="458.75" width="70" height="45" as="geometry" />
        </mxCell>
        <mxCell id="hlcQiqIEzfI4XioGV9WH-85" value="" style="endArrow=none;html=1;rounded=0;exitX=1;exitY=0.5;exitDx=0;exitDy=0;entryX=0;entryY=0.5;entryDx=0;entryDy=0;" parent="1" source="hlcQiqIEzfI4XioGV9WH-76" target="hlcQiqIEzfI4XioGV9WH-84" edge="1">
          <mxGeometry width="50" height="50" relative="1" as="geometry">
            <mxPoint x="595" y="562.5" as="sourcePoint" />
            <mxPoint x="1000" y="358.75" as="targetPoint" />
          </mxGeometry>
        </mxCell>
        <mxCell id="hlcQiqIEzfI4XioGV9WH-86" value="m" style="text;html=1;align=center;verticalAlign=middle;resizable=0;points=[];autosize=1;strokeColor=none;fillColor=none;" parent="1" vertex="1">
          <mxGeometry x="710" y="453.75" width="30" height="30" as="geometry" />
        </mxCell>
        <mxCell id="hlcQiqIEzfI4XioGV9WH-87" value="" style="endArrow=none;html=1;rounded=0;" parent="1" source="hlcQiqIEzfI4XioGV9WH-84" target="hlcQiqIEzfI4XioGV9WH-83" edge="1">
          <mxGeometry width="50" height="50" relative="1" as="geometry">
            <mxPoint x="742.5" y="396.25" as="sourcePoint" />
            <mxPoint x="792.5" y="346.25" as="targetPoint" />
          </mxGeometry>
        </mxCell>
        <mxCell id="hlcQiqIEzfI4XioGV9WH-88" value="1" style="text;html=1;align=center;verticalAlign=middle;resizable=0;points=[];autosize=1;strokeColor=none;fillColor=none;" parent="1" vertex="1">
          <mxGeometry x="762.5" y="436.25" width="30" height="30" as="geometry" />
        </mxCell>
        <mxCell id="hlcQiqIEzfI4XioGV9WH-89" value="staff" style="rounded=0;whiteSpace=wrap;html=1;fillColor=#d5e8d4;strokeColor=#82b366;" parent="1" vertex="1">
          <mxGeometry x="90" y="470" width="70" height="27.5" as="geometry" />
        </mxCell>
        <mxCell id="hlcQiqIEzfI4XioGV9WH-90" value="works at" style="rhombus;whiteSpace=wrap;html=1;fillColor=#e1d5e7;strokeColor=#9673a6;" parent="1" vertex="1">
          <mxGeometry x="215" y="458.75" width="70" height="45" as="geometry" />
        </mxCell>
        <mxCell id="hlcQiqIEzfI4XioGV9WH-91" value="" style="endArrow=none;html=1;rounded=0;exitX=0;exitY=1;exitDx=0;exitDy=0;entryX=1;entryY=0.5;entryDx=0;entryDy=0;" parent="1" source="hlcQiqIEzfI4XioGV9WH-3" target="hlcQiqIEzfI4XioGV9WH-90" edge="1">
          <mxGeometry width="50" height="50" relative="1" as="geometry">
            <mxPoint x="90" y="226.5" as="sourcePoint" />
            <mxPoint x="440" y="227.5" as="targetPoint" />
          </mxGeometry>
        </mxCell>
        <mxCell id="hlcQiqIEzfI4XioGV9WH-92" value="m" style="text;html=1;align=center;verticalAlign=middle;resizable=0;points=[];autosize=1;strokeColor=none;fillColor=none;" parent="1" vertex="1">
          <mxGeometry x="200" y="456.25" width="30" height="30" as="geometry" />
        </mxCell>
        <mxCell id="hlcQiqIEzfI4XioGV9WH-94" value="1" style="text;html=1;align=center;verticalAlign=middle;resizable=0;points=[];autosize=1;strokeColor=none;fillColor=none;" parent="1" vertex="1">
          <mxGeometry x="275" y="456.25" width="30" height="30" as="geometry" />
        </mxCell>
        <mxCell id="hlcQiqIEzfI4XioGV9WH-95" value="" style="endArrow=none;html=1;rounded=0;exitX=0;exitY=0.5;exitDx=0;exitDy=0;entryX=1;entryY=0.5;entryDx=0;entryDy=0;" parent="1" source="hlcQiqIEzfI4XioGV9WH-90" target="hlcQiqIEzfI4XioGV9WH-89" edge="1">
          <mxGeometry width="50" height="50" relative="1" as="geometry">
            <mxPoint x="150" y="265" as="sourcePoint" />
            <mxPoint x="90" y="470" as="targetPoint" />
          </mxGeometry>
        </mxCell>
        <mxCell id="hlcQiqIEzfI4XioGV9WH-98" value="held at" style="rhombus;whiteSpace=wrap;html=1;fillColor=#e1d5e7;strokeColor=#9673a6;" parent="1" vertex="1">
          <mxGeometry x="220" y="360" width="70" height="45" as="geometry" />
        </mxCell>
        <mxCell id="hlcQiqIEzfI4XioGV9WH-99" value="" style="endArrow=none;html=1;rounded=0;exitX=0;exitY=0.75;exitDx=0;exitDy=0;entryX=1;entryY=0.5;entryDx=0;entryDy=0;" parent="1" source="hlcQiqIEzfI4XioGV9WH-3" target="hlcQiqIEzfI4XioGV9WH-98" edge="1">
          <mxGeometry width="50" height="50" relative="1" as="geometry">
            <mxPoint x="370" y="399.75" as="sourcePoint" />
            <mxPoint x="440" y="161.25" as="targetPoint" />
          </mxGeometry>
        </mxCell>
        <mxCell id="hlcQiqIEzfI4XioGV9WH-100" value="m" style="text;html=1;align=center;verticalAlign=middle;resizable=0;points=[];autosize=1;strokeColor=none;fillColor=none;" parent="1" vertex="1">
          <mxGeometry x="205" y="360" width="30" height="30" as="geometry" />
        </mxCell>
        <mxCell id="hlcQiqIEzfI4XioGV9WH-101" value="1" style="text;html=1;align=center;verticalAlign=middle;resizable=0;points=[];autosize=1;strokeColor=none;fillColor=none;" parent="1" vertex="1">
          <mxGeometry x="275" y="380" width="30" height="30" as="geometry" />
        </mxCell>
        <mxCell id="hlcQiqIEzfI4XioGV9WH-102" value="" style="endArrow=none;html=1;rounded=0;exitX=0.078;exitY=0.512;exitDx=0;exitDy=0;exitPerimeter=0;entryX=0.994;entryY=0.559;entryDx=0;entryDy=0;entryPerimeter=0;" parent="1" source="hlcQiqIEzfI4XioGV9WH-112" edge="1">
          <mxGeometry width="50" height="50" relative="1" as="geometry">
            <mxPoint x="150" y="198.75" as="sourcePoint" />
            <mxPoint x="169.51999999999998" y="382.3599999999999" as="targetPoint" />
          </mxGeometry>
        </mxCell>
        <mxCell id="hlcQiqIEzfI4XioGV9WH-104" value="works at" style="rhombus;whiteSpace=wrap;html=1;fillColor=#e1d5e7;strokeColor=#9673a6;" parent="1" vertex="1">
          <mxGeometry x="-30" y="365" width="70" height="45" as="geometry" />
        </mxCell>
        <mxCell id="hlcQiqIEzfI4XioGV9WH-105" value="" style="endArrow=none;html=1;rounded=0;exitX=0;exitY=0.5;exitDx=0;exitDy=0;entryX=0.921;entryY=0.546;entryDx=0;entryDy=0;entryPerimeter=0;" parent="1" target="hlcQiqIEzfI4XioGV9WH-104" edge="1">
          <mxGeometry width="50" height="50" relative="1" as="geometry">
            <mxPoint x="90" y="380" as="sourcePoint" />
            <mxPoint x="315" y="31.25" as="targetPoint" />
          </mxGeometry>
        </mxCell>
        <mxCell id="hlcQiqIEzfI4XioGV9WH-108" value="" style="endArrow=none;html=1;rounded=0;exitX=0;exitY=0.5;exitDx=0;exitDy=0;entryX=0.5;entryY=0;entryDx=0;entryDy=0;" parent="1" source="hlcQiqIEzfI4XioGV9WH-126" edge="1">
          <mxGeometry width="50" height="50" relative="1" as="geometry">
            <mxPoint x="25" y="68.75" as="sourcePoint" />
            <mxPoint x="-75" y="456.25" as="targetPoint" />
          </mxGeometry>
        </mxCell>
        <mxCell id="hlcQiqIEzfI4XioGV9WH-111" value="" style="endArrow=none;html=1;rounded=0;entryX=0.984;entryY=0.617;entryDx=0;entryDy=0;entryPerimeter=0;exitX=0.938;exitY=0.585;exitDx=0;exitDy=0;exitPerimeter=0;" parent="1" source="hlcQiqIEzfI4XioGV9WH-112" edge="1">
          <mxGeometry width="50" height="50" relative="1" as="geometry">
            <mxPoint x="230" y="390" as="sourcePoint" />
            <mxPoint x="168.7199999999998" y="384.67999999999995" as="targetPoint" />
          </mxGeometry>
        </mxCell>
        <mxCell id="hlcQiqIEzfI4XioGV9WH-112" value="held at" style="rhombus;whiteSpace=wrap;html=1;fillColor=#e1d5e7;strokeColor=#9673a6;" parent="1" vertex="1">
          <mxGeometry x="220" y="360" width="70" height="45" as="geometry" />
        </mxCell>
        <mxCell id="hlcQiqIEzfI4XioGV9WH-123" value="" style="endArrow=none;html=1;rounded=0;exitX=0.029;exitY=0.4;exitDx=0;exitDy=0;entryX=0.924;entryY=0.46;entryDx=0;entryDy=0;entryPerimeter=0;exitPerimeter=0;" parent="1" target="hlcQiqIEzfI4XioGV9WH-104" edge="1">
          <mxGeometry width="50" height="50" relative="1" as="geometry">
            <mxPoint x="92.32000000000016" y="375.9999999999999" as="sourcePoint" />
            <mxPoint x="30" y="360" as="targetPoint" />
          </mxGeometry>
        </mxCell>
        <mxCell id="hlcQiqIEzfI4XioGV9WH-126" value="works at" style="rhombus;whiteSpace=wrap;html=1;fillColor=#e1d5e7;strokeColor=#9673a6;" parent="1" vertex="1">
          <mxGeometry x="-30" y="365" width="70" height="45" as="geometry" />
        </mxCell>
        <mxCell id="hlcQiqIEzfI4XioGV9WH-127" value="is a" style="rhombus;whiteSpace=wrap;html=1;fillColor=#e1d5e7;strokeColor=#9673a6;" parent="1" vertex="1">
          <mxGeometry x="-20" y="490" width="70" height="45" as="geometry" />
        </mxCell>
        <mxCell id="hlcQiqIEzfI4XioGV9WH-133" value="1" style="text;html=1;align=center;verticalAlign=middle;resizable=0;points=[];autosize=1;strokeColor=none;fillColor=none;" parent="1" vertex="1">
          <mxGeometry x="-40" y="390" width="30" height="30" as="geometry" />
        </mxCell>
        <mxCell id="hlcQiqIEzfI4XioGV9WH-135" value="m" style="text;html=1;align=center;verticalAlign=middle;resizable=0;points=[];autosize=1;strokeColor=none;fillColor=none;" parent="1" vertex="1">
          <mxGeometry x="20" y="360" width="30" height="30" as="geometry" />
        </mxCell>
        <mxCell id="hlcQiqIEzfI4XioGV9WH-136" value="1" style="text;html=1;align=center;verticalAlign=middle;resizable=0;points=[];autosize=1;strokeColor=none;fillColor=none;" parent="1" vertex="1">
          <mxGeometry x="30" y="483.75" width="30" height="30" as="geometry" />
        </mxCell>
        <mxCell id="hlcQiqIEzfI4XioGV9WH-137" value="m" style="text;html=1;align=center;verticalAlign=middle;resizable=0;points=[];autosize=1;strokeColor=none;fillColor=none;" parent="1" vertex="1">
          <mxGeometry x="-40" y="483.75" width="30" height="30" as="geometry" />
        </mxCell>
        <mxCell id="hlcQiqIEzfI4XioGV9WH-138" value="" style="endArrow=none;html=1;rounded=0;exitX=0.681;exitY=0.99;exitDx=0;exitDy=0;entryX=0.586;entryY=1.049;entryDx=0;entryDy=0;entryPerimeter=0;exitPerimeter=0;" parent="1" source="hlcQiqIEzfI4XioGV9WH-137" edge="1">
          <mxGeometry width="50" height="50" relative="1" as="geometry">
            <mxPoint x="-20" y="398" as="sourcePoint" />
            <mxPoint x="-68.98000000000002" y="485.09749999999985" as="targetPoint" />
          </mxGeometry>
        </mxCell>
        <mxCell id="hlcQiqIEzfI4XioGV9WH-139" value="" style="endArrow=none;html=1;rounded=0;exitX=0;exitY=0.75;exitDx=0;exitDy=0;entryX=0.626;entryY=1.045;entryDx=0;entryDy=0;entryPerimeter=0;" parent="1" source="hlcQiqIEzfI4XioGV9WH-89" target="hlcQiqIEzfI4XioGV9WH-136" edge="1">
          <mxGeometry width="50" height="50" relative="1" as="geometry">
            <mxPoint x="-10" y="523" as="sourcePoint" />
            <mxPoint x="-59" y="495" as="targetPoint" />
          </mxGeometry>
        </mxCell>
        <mxCell id="hlcQiqIEzfI4XioGV9WH-140" value="Social media" style="rounded=0;whiteSpace=wrap;html=1;fillColor=#d5e8d4;strokeColor=#82b366;" parent="1" vertex="1">
          <mxGeometry x="-63.75" y="727.5" width="70" height="30" as="geometry" />
        </mxCell>
        <mxCell id="hlcQiqIEzfI4XioGV9WH-143" value="Courses" style="rounded=0;whiteSpace=wrap;html=1;fillColor=#B8C9B8;strokeColor=#688F52;" parent="1" vertex="1">
          <mxGeometry x="-120" y="450" width="80" height="40" as="geometry" />
        </mxCell>
        <mxCell id="hlcQiqIEzfI4XioGV9WH-144" value="Coach" style="rounded=0;whiteSpace=wrap;html=1;fillColor=#B8C9B8;strokeColor=#688F52;" parent="1" vertex="1">
          <mxGeometry x="-115" y="455" width="70" height="30" as="geometry" />
        </mxCell>
        <mxCell id="hlcQiqIEzfI4XioGV9WH-145" value="Course" style="rounded=0;whiteSpace=wrap;html=1;fillColor=#d5e8d4;strokeColor=#82b366;" parent="1" vertex="1">
          <mxGeometry x="90" y="365" width="80" height="35" as="geometry" />
        </mxCell>
        <mxCell id="hlcQiqIEzfI4XioGV9WH-146" value="" style="endArrow=none;html=1;rounded=0;entryX=0.79;entryY=0.969;entryDx=0;entryDy=0;entryPerimeter=0;exitX=0.942;exitY=1.045;exitDx=0;exitDy=0;exitPerimeter=0;" parent="1" source="hlcQiqIEzfI4XioGV9WH-137" target="hlcQiqIEzfI4XioGV9WH-143" edge="1">
          <mxGeometry width="50" height="50" relative="1" as="geometry">
            <mxPoint x="-10" y="520" as="sourcePoint" />
            <mxPoint x="-55" y="490" as="targetPoint" />
          </mxGeometry>
        </mxCell>
        <mxCell id="hlcQiqIEzfI4XioGV9WH-147" value="is a" style="rhombus;whiteSpace=wrap;html=1;fillColor=#e1d5e7;strokeColor=#9673a6;" parent="1" vertex="1">
          <mxGeometry x="-15" y="492.5" width="60" height="40" as="geometry" />
        </mxCell>
        <mxCell id="hlcQiqIEzfI4XioGV9WH-148" value="held at" style="rhombus;whiteSpace=wrap;html=1;fillColor=#e1d5e7;strokeColor=#9673a6;" parent="1" vertex="1">
          <mxGeometry x="275" y="291" width="70" height="45" as="geometry" />
        </mxCell>
        <mxCell id="hlcQiqIEzfI4XioGV9WH-149" value="" style="endArrow=none;html=1;rounded=0;exitX=0.114;exitY=0.045;exitDx=0;exitDy=0;entryX=1;entryY=0.5;entryDx=0;entryDy=0;exitPerimeter=0;" parent="1" source="hlcQiqIEzfI4XioGV9WH-3" target="hlcQiqIEzfI4XioGV9WH-148" edge="1">
          <mxGeometry width="50" height="50" relative="1" as="geometry">
            <mxPoint x="425" y="390" as="sourcePoint" />
            <mxPoint x="495" y="92.25" as="targetPoint" />
          </mxGeometry>
        </mxCell>
        <mxCell id="hlcQiqIEzfI4XioGV9WH-150" value="m" style="text;html=1;align=center;verticalAlign=middle;resizable=0;points=[];autosize=1;strokeColor=none;fillColor=none;" parent="1" vertex="1">
          <mxGeometry x="260" y="291" width="30" height="30" as="geometry" />
        </mxCell>
        <mxCell id="hlcQiqIEzfI4XioGV9WH-151" value="1" style="text;html=1;align=center;verticalAlign=middle;resizable=0;points=[];autosize=1;strokeColor=none;fillColor=none;" parent="1" vertex="1">
          <mxGeometry x="325" y="311" width="30" height="30" as="geometry" />
        </mxCell>
        <mxCell id="hlcQiqIEzfI4XioGV9WH-152" value="" style="endArrow=none;html=1;rounded=0;exitX=0.218;exitY=0.681;exitDx=0;exitDy=0;exitPerimeter=0;entryX=0.563;entryY=0;entryDx=0;entryDy=0;entryPerimeter=0;" parent="1" source="hlcQiqIEzfI4XioGV9WH-154" target="hlcQiqIEzfI4XioGV9WH-155" edge="1">
          <mxGeometry width="50" height="50" relative="1" as="geometry">
            <mxPoint x="205" y="129.75" as="sourcePoint" />
            <mxPoint x="224.51999999999998" y="313.3599999999999" as="targetPoint" />
          </mxGeometry>
        </mxCell>
        <mxCell id="hlcQiqIEzfI4XioGV9WH-153" value="" style="endArrow=none;html=1;rounded=0;entryX=0.903;entryY=0.96;entryDx=0;entryDy=0;entryPerimeter=0;exitX=1.031;exitY=0.892;exitDx=0;exitDy=0;exitPerimeter=0;" parent="1" source="hlcQiqIEzfI4XioGV9WH-150" target="hlcQiqIEzfI4XioGV9WH-155" edge="1">
          <mxGeometry width="50" height="50" relative="1" as="geometry">
            <mxPoint x="285" y="321" as="sourcePoint" />
            <mxPoint x="223.7199999999998" y="315.67999999999995" as="targetPoint" />
          </mxGeometry>
        </mxCell>
        <mxCell id="hlcQiqIEzfI4XioGV9WH-154" value="held at" style="rhombus;whiteSpace=wrap;html=1;fillColor=#e1d5e7;strokeColor=#9673a6;" parent="1" vertex="1">
          <mxGeometry x="275" y="291" width="70" height="45" as="geometry" />
        </mxCell>
        <mxCell id="hlcQiqIEzfI4XioGV9WH-155" value="Member" style="rounded=0;whiteSpace=wrap;html=1;fillColor=#d5e8d4;strokeColor=#82b366;" parent="1" vertex="1">
          <mxGeometry x="185" y="240" width="80" height="35" as="geometry" />
        </mxCell>
        <mxCell id="hlcQiqIEzfI4XioGV9WH-157" value="held at" style="rhombus;whiteSpace=wrap;html=1;fillColor=#e1d5e7;strokeColor=#9673a6;" parent="1" vertex="1">
          <mxGeometry x="60" y="242" width="70" height="45" as="geometry" />
        </mxCell>
        <mxCell id="hlcQiqIEzfI4XioGV9WH-158" value="" style="endArrow=none;html=1;rounded=0;exitX=0.813;exitY=0.75;exitDx=0;exitDy=0;entryX=1;entryY=0.5;entryDx=0;entryDy=0;exitPerimeter=0;" parent="1" source="hlcQiqIEzfI4XioGV9WH-155" target="hlcQiqIEzfI4XioGV9WH-157" edge="1">
          <mxGeometry width="50" height="50" relative="1" as="geometry">
            <mxPoint x="210" y="341" as="sourcePoint" />
            <mxPoint x="280" y="43.25" as="targetPoint" />
          </mxGeometry>
        </mxCell>
        <mxCell id="hlcQiqIEzfI4XioGV9WH-160" value="m" style="text;html=1;align=center;verticalAlign=middle;resizable=0;points=[];autosize=1;strokeColor=none;fillColor=none;" parent="1" vertex="1">
          <mxGeometry x="90" y="275" width="30" height="30" as="geometry" />
        </mxCell>
        <mxCell id="hlcQiqIEzfI4XioGV9WH-162" value="" style="endArrow=none;html=1;rounded=0;exitX=0.5;exitY=1;exitDx=0;exitDy=0;entryX=0.063;entryY=0.714;entryDx=0;entryDy=0;entryPerimeter=0;" parent="1" source="hlcQiqIEzfI4XioGV9WH-163" target="hlcQiqIEzfI4XioGV9WH-145" edge="1">
          <mxGeometry width="50" height="50" relative="1" as="geometry">
            <mxPoint x="70.93000000000006" y="307.7600000000001" as="sourcePoint" />
            <mxPoint x="90" y="360" as="targetPoint" />
          </mxGeometry>
        </mxCell>
        <mxCell id="hlcQiqIEzfI4XioGV9WH-163" value="enrolls" style="rhombus;whiteSpace=wrap;html=1;fillColor=#e1d5e7;strokeColor=#9673a6;" parent="1" vertex="1">
          <mxGeometry x="60" y="242" width="70" height="45" as="geometry" />
        </mxCell>
        <mxCell id="hlcQiqIEzfI4XioGV9WH-173" value="Course" style="rounded=0;whiteSpace=wrap;html=1;fillColor=#d5e8d4;strokeColor=#82b366;" parent="1" vertex="1">
          <mxGeometry x="90" y="365" width="80" height="35" as="geometry" />
        </mxCell>
        <mxCell id="hlcQiqIEzfI4XioGV9WH-174" value="m" style="text;html=1;align=center;verticalAlign=middle;resizable=0;points=[];autosize=1;strokeColor=none;fillColor=none;" parent="1" vertex="1">
          <mxGeometry x="120" y="261" width="30" height="30" as="geometry" />
        </mxCell>
        <mxCell id="hlcQiqIEzfI4XioGV9WH-175" value="Member" style="rounded=0;whiteSpace=wrap;html=1;fillColor=#d5e8d4;strokeColor=#82b366;" parent="1" vertex="1">
          <mxGeometry x="185" y="240" width="80" height="35" as="geometry" />
        </mxCell>
        <mxCell id="hlcQiqIEzfI4XioGV9WH-176" value="Membership Type" style="rounded=0;whiteSpace=wrap;html=1;fillColor=#d5e8d4;strokeColor=#82b366;" parent="1" vertex="1">
          <mxGeometry x="420" y="220" width="80" height="35" as="geometry" />
        </mxCell>
        <mxCell id="hlcQiqIEzfI4XioGV9WH-177" value="owns" style="rhombus;whiteSpace=wrap;html=1;fillColor=#e1d5e7;strokeColor=#9673a6;" parent="1" vertex="1">
          <mxGeometry x="310" y="215" width="70" height="45" as="geometry" />
        </mxCell>
        <mxCell id="hlcQiqIEzfI4XioGV9WH-179" value="" style="endArrow=none;html=1;rounded=0;entryX=0;entryY=0.5;entryDx=0;entryDy=0;" parent="1" source="hlcQiqIEzfI4XioGV9WH-175" target="hlcQiqIEzfI4XioGV9WH-177" edge="1">
          <mxGeometry width="50" height="50" relative="1" as="geometry">
            <mxPoint x="170" y="350" as="sourcePoint" />
            <mxPoint x="120" y="400" as="targetPoint" />
          </mxGeometry>
        </mxCell>
        <mxCell id="hlcQiqIEzfI4XioGV9WH-180" value="1" style="text;html=1;align=center;verticalAlign=middle;resizable=0;points=[];autosize=1;strokeColor=none;fillColor=none;" parent="1" vertex="1">
          <mxGeometry x="360" y="210" width="30" height="30" as="geometry" />
        </mxCell>
        <mxCell id="hlcQiqIEzfI4XioGV9WH-181" value="m" style="text;html=1;align=center;verticalAlign=middle;resizable=0;points=[];autosize=1;strokeColor=none;fillColor=none;" parent="1" vertex="1">
          <mxGeometry x="295" y="210" width="30" height="30" as="geometry" />
        </mxCell>
        <mxCell id="hlcQiqIEzfI4XioGV9WH-182" value="" style="endArrow=none;html=1;rounded=0;entryX=0;entryY=0.5;entryDx=0;entryDy=0;exitX=0.947;exitY=0.521;exitDx=0;exitDy=0;exitPerimeter=0;" parent="1" source="hlcQiqIEzfI4XioGV9WH-177" target="hlcQiqIEzfI4XioGV9WH-176" edge="1">
          <mxGeometry width="50" height="50" relative="1" as="geometry">
            <mxPoint x="275" y="258" as="sourcePoint" />
            <mxPoint x="320" y="248" as="targetPoint" />
          </mxGeometry>
        </mxCell>
        <mxCell id="LpjfnR9nURVxCJBzHhJD-1" value="Facility_ID" style="ellipse;whiteSpace=wrap;html=1;fillColor=#FF0000;strokeColor=#B85450;fontStyle=5" vertex="1" parent="1">
          <mxGeometry x="367.5" y="296" width="60" height="30" as="geometry" />
        </mxCell>
        <mxCell id="LpjfnR9nURVxCJBzHhJD-7" value="Facility Name" style="ellipse;whiteSpace=wrap;html=1;fillColor=#f8cecc;strokeColor=#b85450;fontStyle=0" vertex="1" parent="1">
          <mxGeometry x="440" y="291" width="60" height="35" as="geometry" />
        </mxCell>
        <mxCell id="LpjfnR9nURVxCJBzHhJD-9" value="" style="endArrow=none;html=1;rounded=0;entryX=0.5;entryY=1;entryDx=0;entryDy=0;exitX=0.25;exitY=0;exitDx=0;exitDy=0;" edge="1" parent="1" source="hlcQiqIEzfI4XioGV9WH-3" target="LpjfnR9nURVxCJBzHhJD-1">
          <mxGeometry width="50" height="50" relative="1" as="geometry">
            <mxPoint x="300" y="570" as="sourcePoint" />
            <mxPoint x="350" y="520" as="targetPoint" />
          </mxGeometry>
        </mxCell>
        <mxCell id="LpjfnR9nURVxCJBzHhJD-10" value="" style="endArrow=none;html=1;rounded=0;entryX=0;entryY=1;entryDx=0;entryDy=0;exitX=0.4;exitY=-0.064;exitDx=0;exitDy=0;exitPerimeter=0;" edge="1" parent="1" source="hlcQiqIEzfI4XioGV9WH-3" target="LpjfnR9nURVxCJBzHhJD-7">
          <mxGeometry width="50" height="50" relative="1" as="geometry">
            <mxPoint x="406.5" y="429.5" as="sourcePoint" />
            <mxPoint x="413.5" y="380.5" as="targetPoint" />
          </mxGeometry>
        </mxCell>
        <mxCell id="LpjfnR9nURVxCJBzHhJD-11" value="" style="endArrow=none;html=1;rounded=0;entryX=0;entryY=1;entryDx=0;entryDy=0;exitX=0.6;exitY=0.045;exitDx=0;exitDy=0;exitPerimeter=0;" edge="1" parent="1" source="hlcQiqIEzfI4XioGV9WH-3" target="LpjfnR9nURVxCJBzHhJD-12">
          <mxGeometry width="50" height="50" relative="1" as="geometry">
            <mxPoint x="408" y="447" as="sourcePoint" />
            <mxPoint x="448" y="365" as="targetPoint" />
          </mxGeometry>
        </mxCell>
        <mxCell id="LpjfnR9nURVxCJBzHhJD-12" value="Capacity" style="ellipse;whiteSpace=wrap;html=1;fillColor=#f8cecc;strokeColor=#b85450;fontStyle=0" vertex="1" parent="1">
          <mxGeometry x="505" y="296" width="60" height="35" as="geometry" />
        </mxCell>
        <mxCell id="LpjfnR9nURVxCJBzHhJD-13" value="Capacity" style="ellipse;whiteSpace=wrap;html=1;fillColor=#f8cecc;strokeColor=#b85450;fontStyle=0" vertex="1" parent="1">
          <mxGeometry x="537.5" y="330" width="60" height="35" as="geometry" />
        </mxCell>
        <mxCell id="LpjfnR9nURVxCJBzHhJD-14" value="Capacity" style="ellipse;whiteSpace=wrap;html=1;fillColor=#f8cecc;strokeColor=#b85450;fontStyle=0" vertex="1" parent="1">
          <mxGeometry x="537.5" y="370" width="60" height="35" as="geometry" />
        </mxCell>
        <mxCell id="LpjfnR9nURVxCJBzHhJD-15" value="Capacity" style="ellipse;whiteSpace=wrap;html=1;fillColor=#f8cecc;strokeColor=#b85450;fontStyle=0" vertex="1" parent="1">
          <mxGeometry x="530" y="410" width="60" height="35" as="geometry" />
        </mxCell>
        <mxCell id="LpjfnR9nURVxCJBzHhJD-17" value="" style="endArrow=none;html=1;rounded=0;entryX=0;entryY=0.5;entryDx=0;entryDy=0;exitX=0.75;exitY=0;exitDx=0;exitDy=0;" edge="1" parent="1" source="hlcQiqIEzfI4XioGV9WH-3" target="LpjfnR9nURVxCJBzHhJD-13">
          <mxGeometry width="50" height="50" relative="1" as="geometry">
            <mxPoint x="422" y="450" as="sourcePoint" />
            <mxPoint x="523" y="336" as="targetPoint" />
          </mxGeometry>
        </mxCell>
        <mxCell id="LpjfnR9nURVxCJBzHhJD-19" value="" style="endArrow=none;html=1;rounded=0;entryX=0;entryY=0.5;entryDx=0;entryDy=0;" edge="1" parent="1">
          <mxGeometry width="50" height="50" relative="1" as="geometry">
            <mxPoint x="433" y="439" as="sourcePoint" />
            <mxPoint x="538" y="388" as="targetPoint" />
          </mxGeometry>
        </mxCell>
        <mxCell id="LpjfnR9nURVxCJBzHhJD-20" value="" style="endArrow=none;html=1;rounded=0;" edge="1" parent="1" source="hlcQiqIEzfI4XioGV9WH-3" target="LpjfnR9nURVxCJBzHhJD-15">
          <mxGeometry width="50" height="50" relative="1" as="geometry">
            <mxPoint x="443" y="449" as="sourcePoint" />
            <mxPoint x="548" y="398" as="targetPoint" />
          </mxGeometry>
        </mxCell>
        <mxCell id="LpjfnR9nURVxCJBzHhJD-21" value="Facility_ID" style="ellipse;whiteSpace=wrap;html=1;fillColor=#FF0000;strokeColor=#B85450;fontStyle=5" vertex="1" parent="1">
          <mxGeometry x="470" y="110" width="60" height="30" as="geometry" />
        </mxCell>
        <mxCell id="LpjfnR9nURVxCJBzHhJD-22" value="Facility Name" style="ellipse;whiteSpace=wrap;html=1;fillColor=#f8cecc;strokeColor=#b85450;fontStyle=0" vertex="1" parent="1">
          <mxGeometry x="552.5" y="130" width="60" height="35" as="geometry" />
        </mxCell>
        <mxCell id="LpjfnR9nURVxCJBzHhJD-23" value="Facility Name" style="ellipse;whiteSpace=wrap;html=1;fillColor=#f8cecc;strokeColor=#b85450;fontStyle=0" vertex="1" parent="1">
          <mxGeometry x="605" y="185" width="60" height="35" as="geometry" />
        </mxCell>
        <mxCell id="LpjfnR9nURVxCJBzHhJD-24" value="" style="endArrow=none;html=1;rounded=0;entryX=0.5;entryY=1;entryDx=0;entryDy=0;exitX=0.35;exitY=-0.029;exitDx=0;exitDy=0;exitPerimeter=0;" edge="1" parent="1" source="hlcQiqIEzfI4XioGV9WH-176" target="LpjfnR9nURVxCJBzHhJD-21">
          <mxGeometry width="50" height="50" relative="1" as="geometry">
            <mxPoint x="398" y="449" as="sourcePoint" />
            <mxPoint x="408" y="336" as="targetPoint" />
          </mxGeometry>
        </mxCell>
        <mxCell id="LpjfnR9nURVxCJBzHhJD-25" value="" style="endArrow=none;html=1;rounded=0;entryX=0;entryY=1;entryDx=0;entryDy=0;exitX=0.75;exitY=0;exitDx=0;exitDy=0;" edge="1" parent="1" source="hlcQiqIEzfI4XioGV9WH-176" target="LpjfnR9nURVxCJBzHhJD-22">
          <mxGeometry width="50" height="50" relative="1" as="geometry">
            <mxPoint x="458" y="229" as="sourcePoint" />
            <mxPoint x="483" y="150" as="targetPoint" />
          </mxGeometry>
        </mxCell>
        <mxCell id="LpjfnR9nURVxCJBzHhJD-26" value="" style="endArrow=none;html=1;rounded=0;entryX=0;entryY=1;entryDx=0;entryDy=0;exitX=1;exitY=0.5;exitDx=0;exitDy=0;" edge="1" parent="1" source="hlcQiqIEzfI4XioGV9WH-176" target="LpjfnR9nURVxCJBzHhJD-23">
          <mxGeometry width="50" height="50" relative="1" as="geometry">
            <mxPoint x="490" y="230" as="sourcePoint" />
            <mxPoint x="538" y="160" as="targetPoint" />
          </mxGeometry>
        </mxCell>
        <mxCell id="LpjfnR9nURVxCJBzHhJD-27" value="Member_ID" style="ellipse;whiteSpace=wrap;html=1;fillColor=#FF0000;strokeColor=#B85450;fontStyle=5" vertex="1" parent="1">
          <mxGeometry x="210" y="100" width="70" height="40" as="geometry" />
        </mxCell>
        <mxCell id="LpjfnR9nURVxCJBzHhJD-29" value="Phone Number" style="ellipse;whiteSpace=wrap;html=1;fillColor=#f8cecc;strokeColor=#b85450;fontStyle=0" vertex="1" parent="1">
          <mxGeometry x="300" y="102.5" width="60" height="35" as="geometry" />
        </mxCell>
        <mxCell id="LpjfnR9nURVxCJBzHhJD-30" value="Date Joined" style="ellipse;whiteSpace=wrap;html=1;fillColor=#f8cecc;strokeColor=#b85450;fontStyle=0" vertex="1" parent="1">
          <mxGeometry x="325" y="150" width="60" height="35" as="geometry" />
        </mxCell>
        <mxCell id="LpjfnR9nURVxCJBzHhJD-31" value="Email" style="ellipse;whiteSpace=wrap;html=1;fillColor=#f8cecc;strokeColor=#b85450;fontStyle=0" vertex="1" parent="1">
          <mxGeometry x="145" y="100" width="60" height="35" as="geometry" />
        </mxCell>
        <mxCell id="LpjfnR9nURVxCJBzHhJD-32" value="Facility Name" style="ellipse;whiteSpace=wrap;html=1;fillColor=#FFE6CC;strokeColor=#b85450;fontStyle=0" vertex="1" parent="1">
          <mxGeometry x="67.5" y="110" width="75" height="50" as="geometry" />
        </mxCell>
        <mxCell id="LpjfnR9nURVxCJBzHhJD-33" value="Name" style="ellipse;whiteSpace=wrap;html=1;fillColor=#FFE6CC;strokeColor=#b85450;fontStyle=0" vertex="1" parent="1">
          <mxGeometry x="75" y="117.5" width="60" height="35" as="geometry" />
        </mxCell>
        <mxCell id="LpjfnR9nURVxCJBzHhJD-34" value="" style="endArrow=none;html=1;rounded=0;entryX=0;entryY=1;entryDx=0;entryDy=0;exitX=1;exitY=0;exitDx=0;exitDy=0;" edge="1" parent="1" source="hlcQiqIEzfI4XioGV9WH-175" target="LpjfnR9nURVxCJBzHhJD-30">
          <mxGeometry width="50" height="50" relative="1" as="geometry">
            <mxPoint x="458" y="229" as="sourcePoint" />
            <mxPoint x="510" y="150" as="targetPoint" />
          </mxGeometry>
        </mxCell>
        <mxCell id="LpjfnR9nURVxCJBzHhJD-35" value="" style="endArrow=none;html=1;rounded=0;exitX=0.75;exitY=0;exitDx=0;exitDy=0;" edge="1" parent="1" source="hlcQiqIEzfI4XioGV9WH-175" target="LpjfnR9nURVxCJBzHhJD-29">
          <mxGeometry width="50" height="50" relative="1" as="geometry">
            <mxPoint x="275" y="250" as="sourcePoint" />
            <mxPoint x="344" y="190" as="targetPoint" />
          </mxGeometry>
        </mxCell>
        <mxCell id="LpjfnR9nURVxCJBzHhJD-36" value="" style="endArrow=none;html=1;rounded=0;exitX=0.5;exitY=0;exitDx=0;exitDy=0;entryX=0.389;entryY=1.036;entryDx=0;entryDy=0;entryPerimeter=0;" edge="1" parent="1" source="hlcQiqIEzfI4XioGV9WH-175" target="LpjfnR9nURVxCJBzHhJD-27">
          <mxGeometry width="50" height="50" relative="1" as="geometry">
            <mxPoint x="250" y="250" as="sourcePoint" />
            <mxPoint x="329" y="146" as="targetPoint" />
          </mxGeometry>
        </mxCell>
        <mxCell id="LpjfnR9nURVxCJBzHhJD-37" value="" style="endArrow=none;html=1;rounded=0;exitX=0.332;exitY=0.041;exitDx=0;exitDy=0;entryX=0.5;entryY=1;entryDx=0;entryDy=0;exitPerimeter=0;" edge="1" parent="1" source="hlcQiqIEzfI4XioGV9WH-175" target="LpjfnR9nURVxCJBzHhJD-31">
          <mxGeometry width="50" height="50" relative="1" as="geometry">
            <mxPoint x="235" y="250" as="sourcePoint" />
            <mxPoint x="247" y="151" as="targetPoint" />
          </mxGeometry>
        </mxCell>
        <mxCell id="LpjfnR9nURVxCJBzHhJD-38" value="" style="endArrow=none;html=1;rounded=0;exitX=0;exitY=0.25;exitDx=0;exitDy=0;entryX=1;entryY=1;entryDx=0;entryDy=0;" edge="1" parent="1" source="hlcQiqIEzfI4XioGV9WH-175" target="LpjfnR9nURVxCJBzHhJD-32">
          <mxGeometry width="50" height="50" relative="1" as="geometry">
            <mxPoint x="222" y="251" as="sourcePoint" />
            <mxPoint x="185" y="145" as="targetPoint" />
          </mxGeometry>
        </mxCell>
        <mxCell id="LpjfnR9nURVxCJBzHhJD-40" value="Course_ID" style="ellipse;whiteSpace=wrap;html=1;fillColor=#FF0000;strokeColor=#B85450;fontStyle=5" vertex="1" parent="1">
          <mxGeometry x="100" y="293.5" width="70" height="40" as="geometry" />
        </mxCell>
        <mxCell id="LpjfnR9nURVxCJBzHhJD-41" value="" style="endArrow=none;html=1;rounded=0;exitX=0.5;exitY=0;exitDx=0;exitDy=0;entryX=0.41;entryY=0.96;entryDx=0;entryDy=0;entryPerimeter=0;" edge="1" parent="1" source="hlcQiqIEzfI4XioGV9WH-173" target="LpjfnR9nURVxCJBzHhJD-40">
          <mxGeometry width="50" height="50" relative="1" as="geometry">
            <mxPoint x="195" y="259" as="sourcePoint" />
            <mxPoint x="142" y="163" as="targetPoint" />
          </mxGeometry>
        </mxCell>
        <mxCell id="LpjfnR9nURVxCJBzHhJD-43" value="Course Capacity" style="ellipse;whiteSpace=wrap;html=1;fillColor=#f8cecc;strokeColor=#b85450;fontStyle=0" vertex="1" parent="1">
          <mxGeometry x="175" y="305" width="60" height="35" as="geometry" />
        </mxCell>
        <mxCell id="LpjfnR9nURVxCJBzHhJD-44" value="Course Cost" style="ellipse;whiteSpace=wrap;html=1;fillColor=#f8cecc;strokeColor=#b85450;fontStyle=0" vertex="1" parent="1">
          <mxGeometry x="20" y="306" width="60" height="35" as="geometry" />
        </mxCell>
        <mxCell id="LpjfnR9nURVxCJBzHhJD-45" value="" style="endArrow=none;html=1;rounded=0;entryX=0;entryY=1;entryDx=0;entryDy=0;exitX=0.75;exitY=0;exitDx=0;exitDy=0;" edge="1" parent="1" source="hlcQiqIEzfI4XioGV9WH-173" target="LpjfnR9nURVxCJBzHhJD-43">
          <mxGeometry width="50" height="50" relative="1" as="geometry">
            <mxPoint x="140" y="375" as="sourcePoint" />
            <mxPoint x="139" y="342" as="targetPoint" />
          </mxGeometry>
        </mxCell>
        <mxCell id="LpjfnR9nURVxCJBzHhJD-46" value="" style="endArrow=none;html=1;rounded=0;entryX=1;entryY=1;entryDx=0;entryDy=0;exitX=0;exitY=0;exitDx=0;exitDy=0;" edge="1" parent="1" source="hlcQiqIEzfI4XioGV9WH-173" target="LpjfnR9nURVxCJBzHhJD-44">
          <mxGeometry width="50" height="50" relative="1" as="geometry">
            <mxPoint x="160" y="375" as="sourcePoint" />
            <mxPoint x="194" y="345" as="targetPoint" />
          </mxGeometry>
        </mxCell>
        <mxCell id="LpjfnR9nURVxCJBzHhJD-47" value="Experience" style="ellipse;whiteSpace=wrap;html=1;fillColor=#f8cecc;strokeColor=#b85450;fontStyle=0" vertex="1" parent="1">
          <mxGeometry x="-230" y="400" width="70" height="35" as="geometry" />
        </mxCell>
        <mxCell id="LpjfnR9nURVxCJBzHhJD-48" value="Coach_ID" style="ellipse;whiteSpace=wrap;html=1;fillColor=#EA6B66;strokeColor=#b85450;fontStyle=0" vertex="1" parent="1">
          <mxGeometry x="-225" y="448.25" width="60" height="35" as="geometry" />
        </mxCell>
        <mxCell id="LpjfnR9nURVxCJBzHhJD-50" value="" style="endArrow=none;dashed=1;html=1;rounded=0;" edge="1" parent="1">
          <mxGeometry width="50" height="50" relative="1" as="geometry">
            <mxPoint x="-216" y="475" as="sourcePoint" />
            <mxPoint x="-173" y="475" as="targetPoint" />
          </mxGeometry>
        </mxCell>
        <mxCell id="LpjfnR9nURVxCJBzHhJD-51" value="" style="endArrow=none;html=1;rounded=0;entryX=0;entryY=0;entryDx=0;entryDy=0;" edge="1" parent="1" source="LpjfnR9nURVxCJBzHhJD-47" target="hlcQiqIEzfI4XioGV9WH-144">
          <mxGeometry width="50" height="50" relative="1" as="geometry">
            <mxPoint x="-20" y="398" as="sourcePoint" />
            <mxPoint x="-65" y="466.25" as="targetPoint" />
          </mxGeometry>
        </mxCell>
        <mxCell id="LpjfnR9nURVxCJBzHhJD-52" value="" style="endArrow=none;html=1;rounded=0;entryX=0;entryY=0.5;entryDx=0;entryDy=0;" edge="1" parent="1" source="LpjfnR9nURVxCJBzHhJD-48" target="hlcQiqIEzfI4XioGV9WH-143">
          <mxGeometry width="50" height="50" relative="1" as="geometry">
            <mxPoint x="-157" y="439" as="sourcePoint" />
            <mxPoint x="-105" y="465" as="targetPoint" />
          </mxGeometry>
        </mxCell>
        <mxCell id="LpjfnR9nURVxCJBzHhJD-53" value="Branch" style="ellipse;whiteSpace=wrap;html=1;fillColor=#f8cecc;strokeColor=#b85450;fontStyle=0" vertex="1" parent="1">
          <mxGeometry x="-235" y="503.75" width="70" height="35" as="geometry" />
        </mxCell>
        <mxCell id="LpjfnR9nURVxCJBzHhJD-54" value="" style="endArrow=none;html=1;rounded=0;entryX=0;entryY=1;entryDx=0;entryDy=0;" edge="1" parent="1" source="LpjfnR9nURVxCJBzHhJD-53" target="hlcQiqIEzfI4XioGV9WH-143">
          <mxGeometry width="50" height="50" relative="1" as="geometry">
            <mxPoint x="-155" y="477" as="sourcePoint" />
            <mxPoint x="-110" y="480" as="targetPoint" />
          </mxGeometry>
        </mxCell>
        <mxCell id="LpjfnR9nURVxCJBzHhJD-57" value="Staff_ID" style="ellipse;whiteSpace=wrap;html=1;fillColor=#FF0000;strokeColor=#B85450;fontStyle=5" vertex="1" parent="1">
          <mxGeometry x="15" y="448.25" width="60" height="30" as="geometry" />
        </mxCell>
        <mxCell id="LpjfnR9nURVxCJBzHhJD-60" value="Salary" style="ellipse;whiteSpace=wrap;html=1;fillColor=#f8cecc;strokeColor=#b85450;fontStyle=0" vertex="1" parent="1">
          <mxGeometry x="120" y="412.5" width="45" height="30" as="geometry" />
        </mxCell>
        <mxCell id="LpjfnR9nURVxCJBzHhJD-61" value="" style="ellipse;whiteSpace=wrap;html=1;fillColor=#FFE6CC;strokeColor=#b85450;fontStyle=0" vertex="1" parent="1">
          <mxGeometry x="57.5" y="516.25" width="72.5" height="43.75" as="geometry" />
        </mxCell>
        <mxCell id="LpjfnR9nURVxCJBzHhJD-62" value="Name" style="ellipse;whiteSpace=wrap;html=1;fillColor=#FFE6CC;strokeColor=#b85450;fontStyle=0" vertex="1" parent="1">
          <mxGeometry x="65" y="525" width="55" height="26.25" as="geometry" />
        </mxCell>
        <mxCell id="LpjfnR9nURVxCJBzHhJD-63" value="" style="endArrow=none;html=1;rounded=0;" edge="1" parent="1" source="hlcQiqIEzfI4XioGV9WH-89" target="LpjfnR9nURVxCJBzHhJD-61">
          <mxGeometry width="50" height="50" relative="1" as="geometry">
            <mxPoint x="100" y="501" as="sourcePoint" />
            <mxPoint x="59" y="525" as="targetPoint" />
          </mxGeometry>
        </mxCell>
        <mxCell id="LpjfnR9nURVxCJBzHhJD-64" value="" style="endArrow=none;html=1;rounded=0;" edge="1" parent="1" source="hlcQiqIEzfI4XioGV9WH-89">
          <mxGeometry width="50" height="50" relative="1" as="geometry">
            <mxPoint x="127" y="508" as="sourcePoint" />
            <mxPoint x="96.33716368834439" y="438.79459697692823" as="targetPoint" />
          </mxGeometry>
        </mxCell>
        <mxCell id="LpjfnR9nURVxCJBzHhJD-66" value="" style="endArrow=none;html=1;rounded=0;exitX=0.614;exitY=-0.034;exitDx=0;exitDy=0;exitPerimeter=0;" edge="1" parent="1" source="hlcQiqIEzfI4XioGV9WH-89" target="LpjfnR9nURVxCJBzHhJD-60">
          <mxGeometry width="50" height="50" relative="1" as="geometry">
            <mxPoint x="126" y="480" as="sourcePoint" />
            <mxPoint x="106" y="449" as="targetPoint" />
          </mxGeometry>
        </mxCell>
        <mxCell id="LpjfnR9nURVxCJBzHhJD-67" value="" style="endArrow=none;html=1;rounded=0;" edge="1" parent="1" source="LpjfnR9nURVxCJBzHhJD-57" target="hlcQiqIEzfI4XioGV9WH-89">
          <mxGeometry width="50" height="50" relative="1" as="geometry">
            <mxPoint x="143" y="479" as="sourcePoint" />
            <mxPoint x="149" y="452" as="targetPoint" />
          </mxGeometry>
        </mxCell>
        <mxCell id="LpjfnR9nURVxCJBzHhJD-69" value="Complex_ID" style="ellipse;whiteSpace=wrap;html=1;fillColor=#FF0000;strokeColor=#B85450;fontStyle=5" vertex="1" parent="1">
          <mxGeometry x="190" y="770" width="75" height="30" as="geometry" />
        </mxCell>
        <mxCell id="LpjfnR9nURVxCJBzHhJD-70" value="" style="endArrow=none;html=1;rounded=0;" edge="1" parent="1" source="hlcQiqIEzfI4XioGV9WH-1" target="LpjfnR9nURVxCJBzHhJD-69">
          <mxGeometry width="50" height="50" relative="1" as="geometry">
            <mxPoint x="100" y="501" as="sourcePoint" />
            <mxPoint x="59" y="525" as="targetPoint" />
          </mxGeometry>
        </mxCell>
        <mxCell id="LpjfnR9nURVxCJBzHhJD-72" value="Role" style="ellipse;whiteSpace=wrap;html=1;fillColor=#f8cecc;strokeColor=#b85450;fontStyle=0" vertex="1" parent="1">
          <mxGeometry x="75" y="420" width="45" height="30" as="geometry" />
        </mxCell>
        <mxCell id="LpjfnR9nURVxCJBzHhJD-73" value="State" style="ellipse;whiteSpace=wrap;html=1;fillColor=#f8cecc;strokeColor=#b85450;fontStyle=0" vertex="1" parent="1">
          <mxGeometry x="55" y="592.5" width="45" height="30" as="geometry" />
        </mxCell>
        <mxCell id="LpjfnR9nURVxCJBzHhJD-74" value="City" style="ellipse;whiteSpace=wrap;html=1;fillColor=#f8cecc;strokeColor=#b85450;fontStyle=0" vertex="1" parent="1">
          <mxGeometry x="115" y="562.5" width="45" height="30" as="geometry" />
        </mxCell>
        <mxCell id="LpjfnR9nURVxCJBzHhJD-75" value="Adress" style="ellipse;whiteSpace=wrap;html=1;fillColor=#f8cecc;strokeColor=#b85450;fontStyle=0" vertex="1" parent="1">
          <mxGeometry x="172.5" y="570" width="57.5" height="30" as="geometry" />
        </mxCell>
        <mxCell id="LpjfnR9nURVxCJBzHhJD-76" value="" style="endArrow=none;html=1;rounded=0;" edge="1" parent="1" source="hlcQiqIEzfI4XioGV9WH-1" target="LpjfnR9nURVxCJBzHhJD-74">
          <mxGeometry width="50" height="50" relative="1" as="geometry">
            <mxPoint x="150" y="650" as="sourcePoint" />
            <mxPoint x="106" y="449" as="targetPoint" />
          </mxGeometry>
        </mxCell>
        <mxCell id="LpjfnR9nURVxCJBzHhJD-77" value="" style="endArrow=none;html=1;rounded=0;" edge="1" parent="1" source="hlcQiqIEzfI4XioGV9WH-1" target="LpjfnR9nURVxCJBzHhJD-75">
          <mxGeometry width="50" height="50" relative="1" as="geometry">
            <mxPoint x="157" y="640" as="sourcePoint" />
            <mxPoint x="150" y="602" as="targetPoint" />
          </mxGeometry>
        </mxCell>
        <mxCell id="LpjfnR9nURVxCJBzHhJD-78" value="" style="endArrow=none;html=1;rounded=0;" edge="1" parent="1" source="hlcQiqIEzfI4XioGV9WH-1" target="LpjfnR9nURVxCJBzHhJD-73">
          <mxGeometry width="50" height="50" relative="1" as="geometry">
            <mxPoint x="172" y="643" as="sourcePoint" />
            <mxPoint x="200" y="609" as="targetPoint" />
          </mxGeometry>
        </mxCell>
        <mxCell id="LpjfnR9nURVxCJBzHhJD-79" value="Zip code" style="ellipse;whiteSpace=wrap;html=1;fillColor=#f8cecc;strokeColor=#b85450;fontStyle=0" vertex="1" parent="1">
          <mxGeometry x="220" y="650" width="57.5" height="30" as="geometry" />
        </mxCell>
        <mxCell id="LpjfnR9nURVxCJBzHhJD-80" value="" style="endArrow=none;html=1;rounded=0;" edge="1" parent="1" source="hlcQiqIEzfI4XioGV9WH-1" target="LpjfnR9nURVxCJBzHhJD-79">
          <mxGeometry width="50" height="50" relative="1" as="geometry">
            <mxPoint x="172" y="643" as="sourcePoint" />
            <mxPoint x="200" y="609" as="targetPoint" />
          </mxGeometry>
        </mxCell>
        <mxCell id="LpjfnR9nURVxCJBzHhJD-83" value="phone number" style="ellipse;whiteSpace=wrap;html=1;fillColor=#f8cecc;strokeColor=#b85450;fontStyle=0" vertex="1" parent="1">
          <mxGeometry x="30" y="662.5" width="65" height="35" as="geometry" />
        </mxCell>
        <mxCell id="LpjfnR9nURVxCJBzHhJD-84" value="Year Established" style="ellipse;whiteSpace=wrap;html=1;fillColor=#f8cecc;strokeColor=#b85450;fontStyle=0" vertex="1" parent="1">
          <mxGeometry x="210" y="697.5" width="75" height="42.5" as="geometry" />
        </mxCell>
        <mxCell id="LpjfnR9nURVxCJBzHhJD-85" value="Website" style="ellipse;whiteSpace=wrap;html=1;fillColor=#f8cecc;strokeColor=#b85450;fontStyle=0" vertex="1" parent="1">
          <mxGeometry x="122.5" y="760" width="57.5" height="30" as="geometry" />
        </mxCell>
        <mxCell id="LpjfnR9nURVxCJBzHhJD-86" value="Number of Facilities" style="ellipse;whiteSpace=wrap;html=1;fillColor=#f8cecc;strokeColor=#b85450;fontStyle=0" vertex="1" parent="1">
          <mxGeometry x="50" y="711.25" width="65" height="42.5" as="geometry" />
        </mxCell>
        <mxCell id="LpjfnR9nURVxCJBzHhJD-87" value="" style="endArrow=none;html=1;rounded=0;" edge="1" parent="1" source="hlcQiqIEzfI4XioGV9WH-1" target="LpjfnR9nURVxCJBzHhJD-85">
          <mxGeometry width="50" height="50" relative="1" as="geometry">
            <mxPoint x="195" y="664" as="sourcePoint" />
            <mxPoint x="231" y="670" as="targetPoint" />
          </mxGeometry>
        </mxCell>
        <mxCell id="LpjfnR9nURVxCJBzHhJD-88" value="" style="endArrow=none;html=1;rounded=0;" edge="1" parent="1" source="hlcQiqIEzfI4XioGV9WH-1" target="LpjfnR9nURVxCJBzHhJD-86">
          <mxGeometry width="50" height="50" relative="1" as="geometry">
            <mxPoint x="160" y="673" as="sourcePoint" />
            <mxPoint x="161" y="770" as="targetPoint" />
          </mxGeometry>
        </mxCell>
        <mxCell id="LpjfnR9nURVxCJBzHhJD-89" value="" style="endArrow=none;html=1;rounded=0;" edge="1" parent="1" source="hlcQiqIEzfI4XioGV9WH-1" target="LpjfnR9nURVxCJBzHhJD-83">
          <mxGeometry width="50" height="50" relative="1" as="geometry">
            <mxPoint x="148" y="673" as="sourcePoint" />
            <mxPoint x="107" y="724" as="targetPoint" />
          </mxGeometry>
        </mxCell>
        <mxCell id="LpjfnR9nURVxCJBzHhJD-91" value="Social_Media_ID" style="ellipse;whiteSpace=wrap;html=1;fillColor=#FF0000;strokeColor=#B85450;fontStyle=5" vertex="1" parent="1">
          <mxGeometry x="-90" y="810" width="110" height="30" as="geometry" />
        </mxCell>
        <mxCell id="LpjfnR9nURVxCJBzHhJD-92" value="" style="endArrow=none;html=1;rounded=0;" edge="1" parent="1" source="hlcQiqIEzfI4XioGV9WH-140" target="LpjfnR9nURVxCJBzHhJD-91">
          <mxGeometry width="50" height="50" relative="1" as="geometry">
            <mxPoint x="148" y="673" as="sourcePoint" />
            <mxPoint x="107" y="724" as="targetPoint" />
          </mxGeometry>
        </mxCell>
        <mxCell id="LpjfnR9nURVxCJBzHhJD-93" value="Platform" style="ellipse;whiteSpace=wrap;html=1;fillColor=#f8cecc;strokeColor=#b85450;fontStyle=0" vertex="1" parent="1">
          <mxGeometry x="-160" y="790" width="57.5" height="30" as="geometry" />
        </mxCell>
        <mxCell id="LpjfnR9nURVxCJBzHhJD-94" value="" style="endArrow=none;html=1;rounded=0;" edge="1" parent="1" source="hlcQiqIEzfI4XioGV9WH-140" target="LpjfnR9nURVxCJBzHhJD-93">
          <mxGeometry width="50" height="50" relative="1" as="geometry">
            <mxPoint x="-24" y="768" as="sourcePoint" />
            <mxPoint x="-52" y="850" as="targetPoint" />
          </mxGeometry>
        </mxCell>
        <mxCell id="LpjfnR9nURVxCJBzHhJD-96" value="URL" style="ellipse;whiteSpace=wrap;html=1;fillColor=#f8cecc;strokeColor=#b85450;fontStyle=0" vertex="1" parent="1">
          <mxGeometry x="32.5" y="790" width="57.5" height="30" as="geometry" />
        </mxCell>
        <mxCell id="LpjfnR9nURVxCJBzHhJD-98" value="" style="endArrow=none;html=1;rounded=0;" edge="1" parent="1" source="hlcQiqIEzfI4XioGV9WH-140" target="LpjfnR9nURVxCJBzHhJD-96">
          <mxGeometry width="50" height="50" relative="1" as="geometry">
            <mxPoint x="-43" y="768" as="sourcePoint" />
            <mxPoint x="-103" y="804" as="targetPoint" />
          </mxGeometry>
        </mxCell>
        <mxCell id="LpjfnR9nURVxCJBzHhJD-100" value="Availability Day" style="ellipse;whiteSpace=wrap;html=1;fillColor=#EA6B66;strokeColor=#b85450;fontStyle=0" vertex="1" parent="1">
          <mxGeometry x="295" y="807.5" width="105" height="35" as="geometry" />
        </mxCell>
        <mxCell id="LpjfnR9nURVxCJBzHhJD-101" value="" style="endArrow=none;dashed=1;html=1;rounded=0;" edge="1" parent="1">
          <mxGeometry width="50" height="50" relative="1" as="geometry">
            <mxPoint x="304" y="834.25" as="sourcePoint" />
            <mxPoint x="389" y="834" as="targetPoint" />
          </mxGeometry>
        </mxCell>
        <mxCell id="LpjfnR9nURVxCJBzHhJD-102" value="Availability Hour" style="ellipse;whiteSpace=wrap;html=1;fillColor=#EA6B66;strokeColor=#b85450;fontStyle=0" vertex="1" parent="1">
          <mxGeometry x="450" y="805" width="105" height="35" as="geometry" />
        </mxCell>
        <mxCell id="LpjfnR9nURVxCJBzHhJD-103" value="" style="endArrow=none;dashed=1;html=1;rounded=0;" edge="1" parent="1">
          <mxGeometry width="50" height="50" relative="1" as="geometry">
            <mxPoint x="459" y="831.75" as="sourcePoint" />
            <mxPoint x="544" y="831.5" as="targetPoint" />
          </mxGeometry>
        </mxCell>
        <mxCell id="LpjfnR9nURVxCJBzHhJD-104" value="" style="endArrow=none;html=1;rounded=0;entryX=0.352;entryY=1.026;entryDx=0;entryDy=0;entryPerimeter=0;" edge="1" parent="1" source="LpjfnR9nURVxCJBzHhJD-100" target="hlcQiqIEzfI4XioGV9WH-41">
          <mxGeometry width="50" height="50" relative="1" as="geometry">
            <mxPoint x="210" y="830" as="sourcePoint" />
            <mxPoint x="260" y="780" as="targetPoint" />
          </mxGeometry>
        </mxCell>
        <mxCell id="LpjfnR9nURVxCJBzHhJD-105" value="" style="endArrow=none;html=1;rounded=0;entryX=0.697;entryY=0.999;entryDx=0;entryDy=0;entryPerimeter=0;" edge="1" parent="1" source="LpjfnR9nURVxCJBzHhJD-102" target="hlcQiqIEzfI4XioGV9WH-41">
          <mxGeometry width="50" height="50" relative="1" as="geometry">
            <mxPoint x="366" y="818" as="sourcePoint" />
            <mxPoint x="403" y="741" as="targetPoint" />
          </mxGeometry>
        </mxCell>
      </root>
    </mxGraphModel>
  </diagram>
</mxfile>
